<?xml version="1.0" encoding="utf-8"?>
<!-- Generator: Adobe Illustrator 19.2.0, SVG Export Plug-In . SVG Version: 6.00 Build 0)  -->
<svg version="1.1" id="Layer_1" xmlns="http://www.w3.org/2000/svg" xmlns:xlink="http://www.w3.org/1999/xlink" x="0px" y="0px"
	 width="400px" height="147.3px" viewBox="0 0 400 147.3" style="enable-background:new 0 0 400 147.3;" xml:space="preserve">
<style type="text/css">
	.st0{fill:#80A143;}
	.st1{fill:#608916;}
	.st2{fill:#80A145;}
	.st3{fill:#486710;}
	.st4{fill:#FFFFFF;}
</style>
<g id="XMLID_2_">
	<g>
		<polygon class="st0" points="121.5,24.8 122.8,50.6 121.5,24.8 		"/>
		<polygon class="st0" points="122.8,50.6 99.3,96.8 115.5,134.9 99.3,96.8 		"/>
		<path class="st0" d="M117.7,27.4L42.3,90.3h-14l32.2-61.5c2.7,6.9,9.5,11.7,17.3,11.7c9,0,16.5-6.4,18.2-14.9L117.7,27.4z"/>
		<polygon class="st0" points="115.3,139.6 70.7,139.6 96.5,101.1 110.9,136.3 		"/>
		<path class="st0" d="M84.4,21.3c0,2.5-1.3,4.7-3.4,5.8c0,0,0,0,0,0c-2.2,0.3-4.3,0.4-6.2,0.3c-2.3-1.1-3.9-3.4-3.9-6.1
			c0-3.7,3-6.8,6.8-6.8C81.4,14.5,84.4,17.5,84.4,21.3z"/>
		<path class="st0" d="M81.1,27.1c-1,0.6-2.1,0.9-3.4,0.9c-1,0-2-0.2-2.9-0.6C76.8,27.5,78.8,27.4,81.1,27.1z"/>
		<polygon class="st0" points="72.1,93.6 41.3,135 46.8,139.5 8.2,139.6 		"/>
		<polygon class="st0" points="59.5,25 59.5,25 12.5,65.8 		"/>
	</g>
</g>
<g id="XMLID_1_">
	<g>
		<polygon class="st1" points="115.3,139.6 70.7,139.6 96.5,101.1 110.9,136.3 		"/>
		<polygon class="st2" points="119.2,30 120.3,50 46.9,90.3 		"/>
		<polygon class="st1" points="67.6,93.6 7,136.2 27.3,93.6 		"/>
		<path class="st1" d="M117.7,27.4L42.3,90.3h-14l32.2-61.5c2.7,6.9,9.5,11.7,17.3,11.7c9,0,16.5-6.4,18.2-14.9L117.7,27.4z"/>
		<path class="st3" d="M92.5,21.8c0,0.4,0,0.8-0.1,1.2c-0.6,7.5-7,13.5-14.6,13.5c-7.2,0-13.2-5.2-14.5-12.1
			c-0.2-0.9-0.2-1.7-0.2-2.6c0-8.1,6.6-14.7,14.7-14.7C85.9,7.1,92.5,13.7,92.5,21.8z"/>
		<path class="st3" d="M72.1,93.6l-64,46l38.7-0.1l-5.6-4.5L72.1,93.6z M121.5,24.8l1.3,25.8L99.3,96.8l16.2,38l10.5,8.2H2.4
			l10.1-77.3L59.5,25v0c-0.2-1-0.3-2.1-0.3-3.1c0-10.3,8.4-18.6,18.6-18.6s18.6,8.4,18.6,18.6c0,0.2,0,0.3,0,0.5L121.5,24.8z
			 M119.2,30L46.9,90.3L120.3,50L119.2,30z M67.6,93.6H27.3L7,136.2L67.6,93.6z M117.7,27.4l-21.6-1.9c-1.7,8.5-9.2,14.9-18.2,14.9
			c-7.8,0-14.6-4.9-17.3-11.7L28.3,90.3h14L117.7,27.4z M70.7,139.6l44.7,0l-4.4-3.4l-14.4-35.1L70.7,139.6z M92.4,23.1
			c0-0.4,0.1-0.8,0.1-1.2c0-8.1-6.6-14.7-14.7-14.7c-8.1,0-14.7,6.6-14.7,14.7c0,0.9,0.1,1.8,0.2,2.6c1.2,6.9,7.3,12.1,14.5,12.1
			C85.5,36.5,91.8,30.6,92.4,23.1z"/>
	</g>
</g>
<path class="st4" d="M77.8,7.1c-8.1,0-14.7,6.6-14.7,14.7c0,0.9,0.1,1.8,0.2,2.6c1.2,6.9,7.3,12.1,14.5,12.1c7.7,0,14-5.9,14.6-13.5
	c0-0.4,0.1-0.8,0.1-1.2C92.5,13.7,85.9,7.1,77.8,7.1z M81.1,27.1c-1,0.6-2.2,0.9-3.4,0.9c-1,0-2-0.2-2.9-0.6
	c-2.3-1.1-3.9-3.4-3.9-6.1c0-3.7,3-6.8,6.8-6.8c3.7,0,6.8,3,6.8,6.8C84.4,23.8,83.1,25.9,81.1,27.1C81.1,27.1,81.1,27.1,81.1,27.1z"
	/>
<g>
	<path class="st3" d="M165.9,48.8c-0.2,1.6-0.6,3.1-1.2,4.5c-0.6,1.4-1.5,2.6-2.5,3.6c-1.1,1-2.4,1.8-3.9,2.4
		c-1.6,0.6-3.4,0.9-5.4,0.9c-2,0-3.9-0.4-5.6-1.1c-1.7-0.8-3.1-1.8-4.3-3.2c-1.2-1.4-2.1-3.1-2.7-5c-0.6-2-1-4.2-1-6.6v-3.5
		c0-2.4,0.3-4.6,1-6.6c0.6-2,1.6-3.7,2.8-5.1c1.2-1.4,2.7-2.5,4.4-3.3s3.6-1.2,5.8-1.2c1.9,0,3.7,0.3,5.2,0.9
		c1.5,0.6,2.8,1.4,3.8,2.4c1.1,1,1.9,2.2,2.5,3.7c0.6,1.4,1,3,1.2,4.7h-4.6c-0.2-1.2-0.4-2.3-0.8-3.3c-0.4-1-0.9-1.8-1.5-2.5
		c-0.6-0.7-1.4-1.2-2.4-1.6c-1-0.4-2.1-0.5-3.4-0.5c-1.5,0-2.9,0.3-4.1,0.9c-1.2,0.6-2.1,1.4-2.9,2.5c-0.8,1.1-1.4,2.4-1.8,3.9
		c-0.4,1.5-0.6,3.2-0.6,5v3.5c0,1.7,0.2,3.3,0.5,4.8c0.4,1.5,0.9,2.8,1.6,3.9c0.7,1.1,1.7,2,2.8,2.6c1.1,0.6,2.5,1,4,1
		c1.5,0,2.7-0.2,3.7-0.5c1-0.3,1.8-0.9,2.5-1.5c0.7-0.7,1.2-1.5,1.5-2.4c0.4-1,0.6-2,0.8-3.3H165.9z"/>
	<path class="st3" d="M192.7,43.8h-15v12.3h17.4v3.7h-22V25.2h21.7V29h-17.2v11.1h15V43.8z"/>
	<path class="st3" d="M228.4,59.8h-4.6l-17.4-26.7v26.7h-4.6V25.2h4.6L223.8,52V25.2h4.5V59.8z"/>
	<path class="st3" d="M260.7,29h-11.1v30.8H245V29h-11.1v-3.8h26.8V29z"/>
	<path class="st3" d="M286.4,43.8h-15v12.3h17.4v3.7h-22V25.2h21.7V29h-17.2v11.1h15V43.8z"/>
	<path class="st3" d="M308.2,45.8h-8.1v14h-4.6V25.2H307c3.9,0,6.9,0.9,9,2.7c2.1,1.8,3.1,4.4,3.1,7.7c0,2.2-0.6,4-1.7,5.6
		c-1.2,1.6-2.8,2.8-4.9,3.6l8.1,14.7v0.3h-4.9L308.2,45.8z M300.1,42.1h7c1.2,0,2.3-0.2,3.2-0.5c0.9-0.3,1.7-0.8,2.3-1.4
		c0.6-0.6,1.1-1.3,1.4-2c0.3-0.8,0.5-1.6,0.5-2.5c0-1-0.1-1.9-0.4-2.7c-0.3-0.8-0.7-1.5-1.4-2.1c-0.6-0.6-1.4-1-2.4-1.4
		c-1-0.3-2.1-0.5-3.4-0.5h-6.9V42.1z"/>
	<path class="st3" d="M341.1,59.8V37.5H337v-3.4h4.1v-2.7c0-1.4,0.2-2.6,0.6-3.7c0.4-1.1,0.9-2,1.7-2.7c0.7-0.7,1.6-1.3,2.7-1.7
		c1-0.4,2.2-0.6,3.5-0.6c1,0,2,0.1,3,0.4l-0.2,3.6c-0.3-0.1-0.7-0.1-1.1-0.2c-0.4,0-0.8-0.1-1.2-0.1c-1.4,0-2.5,0.4-3.3,1.2
		c-0.8,0.8-1.2,2-1.2,3.6v2.7h5.5v3.4h-5.5v22.3H341.1z"/>
	<path class="st3" d="M355.6,46.7c0-1.9,0.3-3.6,0.8-5.2c0.5-1.6,1.3-3,2.3-4.1c1-1.2,2.2-2.1,3.7-2.8c1.4-0.7,3.1-1,4.8-1
		c1.8,0,3.5,0.3,4.9,1c1.4,0.7,2.7,1.6,3.7,2.8c1,1.2,1.8,2.6,2.3,4.1c0.5,1.6,0.8,3.3,0.8,5.2v0.5c0,1.9-0.3,3.6-0.8,5.2
		c-0.5,1.6-1.3,3-2.3,4.1c-1,1.2-2.2,2.1-3.7,2.7c-1.4,0.7-3.1,1-4.9,1s-3.4-0.3-4.9-1c-1.4-0.7-2.7-1.6-3.7-2.7
		c-1-1.2-1.8-2.5-2.3-4.1c-0.5-1.6-0.8-3.3-0.8-5.2V46.7z M360.1,47.2c0,1.3,0.1,2.5,0.5,3.6c0.3,1.1,0.8,2.1,1.4,3
		c0.6,0.9,1.4,1.5,2.3,2.1c0.9,0.5,2,0.8,3.2,0.8c1.2,0,2.3-0.3,3.2-0.8c0.9-0.5,1.7-1.2,2.3-2.1c0.6-0.9,1.1-1.9,1.4-3
		c0.3-1.1,0.5-2.4,0.5-3.6v-0.5c0-1.3-0.2-2.5-0.5-3.6c-0.3-1.1-0.8-2.2-1.4-3c-0.6-0.9-1.4-1.6-2.3-2.1c-0.9-0.5-2-0.8-3.2-0.8
		c-1.2,0-2.3,0.3-3.2,0.8c-0.9,0.5-1.7,1.2-2.3,2.1c-0.6,0.9-1.1,1.9-1.4,3c-0.3,1.1-0.5,2.4-0.5,3.6V47.2z"/>
	<path class="st3" d="M398,38c-0.4-0.1-0.7-0.1-1.1-0.1c-0.3,0-0.7,0-1.1,0c-1.5,0-2.8,0.3-3.7,1c-1,0.7-1.7,1.6-2.1,2.7v18.2h-4.4
		V34.1h4.3l0.1,3c0.7-1.1,1.5-1.9,2.5-2.5c1-0.6,2.2-0.9,3.6-0.9c0.3,0,0.7,0,1.1,0.1c0.4,0.1,0.7,0.1,0.9,0.2V38z"/>
	<path class="st3" d="M139.4,102.8V65.5h11.5c1.9,0,3.5,0.2,5,0.6c1.5,0.4,2.7,1,3.8,1.9c1,0.8,1.8,1.9,2.3,3.2
		c0.5,1.3,0.8,2.8,0.8,4.5c0,0.9-0.1,1.7-0.3,2.5c-0.2,0.8-0.5,1.5-0.8,2.2c-0.4,0.7-0.9,1.3-1.5,1.9c-0.6,0.6-1.3,1-2.1,1.4
		c1,0.3,1.8,0.7,2.4,1.2c0.7,0.6,1.2,1.2,1.6,1.9c0.4,0.7,0.7,1.5,0.9,2.4c0.2,0.9,0.3,1.7,0.3,2.6c0,3.6-1,6.3-3,8.2
		c-2,1.8-4.9,2.8-8.6,2.8H139.4z M146.9,81.1h3.9c1.5,0,2.6-0.4,3.3-1.2c0.7-0.8,1.1-1.9,1.1-3.4c0-1.7-0.3-2.9-1-3.6
		c-0.7-0.7-1.8-1.1-3.3-1.1h-4V81.1z M146.9,86.6v10h4.8c0.7,0,1.4-0.1,1.9-0.4c0.5-0.2,0.9-0.6,1.3-1c0.3-0.4,0.6-0.9,0.7-1.5
		c0.2-0.6,0.2-1.2,0.2-1.9c0-1.6-0.3-2.8-0.9-3.8c-0.6-0.9-1.6-1.4-3-1.4H146.9z"/>
	<path class="st3" d="M176.7,102.8h-7.5V65.5h7.5V102.8z"/>
	<path class="st3" d="M209.2,87.5c0,2.6-0.3,4.9-1,6.9c-0.6,2-1.6,3.6-2.7,4.9c-1.2,1.3-2.6,2.3-4.2,3c-1.6,0.7-3.5,1-5.5,1
		c-2,0-3.8-0.3-5.5-1c-1.7-0.7-3.1-1.7-4.3-3c-1.2-1.3-2.1-3-2.8-4.9c-0.7-2-1-4.3-1-6.9v-6.2c0-2.7,0.3-5,1-7.1
		c0.6-2,1.6-3.7,2.7-5.1c1.2-1.4,2.6-2.4,4.2-3.1c1.7-0.7,3.5-1,5.5-1c2,0,3.8,0.3,5.5,1c1.6,0.7,3.1,1.7,4.3,3.1
		c1.2,1.4,2.1,3.1,2.8,5.1c0.6,2,1,4.4,1,7.1V87.5z M201.7,81.3c0-1.8-0.1-3.3-0.4-4.5c-0.3-1.3-0.6-2.3-1.1-3.1
		c-0.5-0.8-1.1-1.4-1.8-1.8c-0.7-0.4-1.6-0.6-2.5-0.6c-1,0-1.8,0.2-2.6,0.6c-0.7,0.4-1.3,1-1.8,1.8c-0.5,0.8-0.9,1.8-1.1,3.1
		c-0.3,1.3-0.4,2.8-0.4,4.5v6.2c0,1.7,0.1,3.1,0.4,4.3c0.3,1.2,0.6,2.2,1.1,3c0.5,0.8,1.1,1.3,1.9,1.7c0.7,0.4,1.6,0.5,2.6,0.5
		c1,0,1.8-0.2,2.5-0.5c0.7-0.4,1.3-0.9,1.8-1.7c0.5-0.8,0.9-1.8,1.1-3c0.2-1.2,0.4-2.6,0.4-4.3V81.3z"/>
	<path class="st3" d="M222.2,96.5h13.2v6.2h-20.7V65.5h7.5V96.5z"/>
	<path class="st3" d="M264.3,87.5c0,2.6-0.3,4.9-1,6.9c-0.6,2-1.6,3.6-2.7,4.9c-1.2,1.3-2.6,2.3-4.2,3c-1.6,0.7-3.5,1-5.5,1
		c-2,0-3.8-0.3-5.5-1c-1.7-0.7-3.1-1.7-4.3-3c-1.2-1.3-2.1-3-2.8-4.9c-0.7-2-1-4.3-1-6.9v-6.2c0-2.7,0.3-5,1-7.1
		c0.6-2,1.6-3.7,2.7-5.1c1.2-1.4,2.6-2.4,4.2-3.1c1.7-0.7,3.5-1,5.5-1c2,0,3.8,0.3,5.5,1c1.6,0.7,3.1,1.7,4.3,3.1
		c1.2,1.4,2.1,3.1,2.8,5.1c0.6,2,1,4.4,1,7.1V87.5z M256.8,81.3c0-1.8-0.1-3.3-0.4-4.5c-0.3-1.3-0.6-2.3-1.1-3.1
		c-0.5-0.8-1.1-1.4-1.8-1.8c-0.7-0.4-1.6-0.6-2.5-0.6c-1,0-1.8,0.2-2.6,0.6c-0.7,0.4-1.3,1-1.8,1.8c-0.5,0.8-0.9,1.8-1.1,3.1
		c-0.3,1.3-0.4,2.8-0.4,4.5v6.2c0,1.7,0.1,3.1,0.4,4.3c0.3,1.2,0.6,2.2,1.1,3c0.5,0.8,1.1,1.3,1.9,1.7c0.7,0.4,1.6,0.5,2.6,0.5
		c1,0,1.8-0.2,2.5-0.5c0.7-0.4,1.3-0.9,1.8-1.7c0.5-0.8,0.9-1.8,1.1-3c0.2-1.2,0.4-2.6,0.4-4.3V81.3z"/>
	<path class="st3" d="M295.1,98.6c-0.4,0.4-0.9,0.9-1.6,1.5c-0.7,0.5-1.5,1.1-2.5,1.5c-1,0.5-2.2,0.9-3.5,1.2
		c-1.3,0.3-2.9,0.5-4.7,0.5c-2.1,0-4-0.3-5.6-1c-1.7-0.6-3.1-1.6-4.3-2.9c-1.2-1.3-2.1-3-2.8-5c-0.6-2-1-4.4-1-7.1V81
		c0-2.7,0.3-5.1,0.9-7.1c0.6-2,1.5-3.7,2.6-5c1.1-1.3,2.5-2.3,4.1-3c1.6-0.6,3.5-1,5.5-1c2.1,0,3.9,0.3,5.5,0.8
		c1.5,0.5,2.8,1.3,3.8,2.4c1,1,1.8,2.3,2.4,3.9c0.5,1.5,0.9,3.3,1,5.3h-7.3c-0.1-1.2-0.3-2.2-0.5-2.9c-0.2-0.8-0.6-1.4-1-1.9
		c-0.4-0.5-0.9-0.8-1.5-1c-0.6-0.2-1.3-0.3-2.2-0.3c-1,0-1.9,0.2-2.6,0.5c-0.7,0.4-1.3,0.9-1.8,1.7c-0.5,0.8-0.8,1.8-1.1,3
		c-0.2,1.2-0.4,2.7-0.4,4.5v6.3c0,1.8,0.1,3.3,0.4,4.5c0.3,1.2,0.7,2.2,1.2,3c0.5,0.8,1.2,1.3,2,1.7c0.8,0.4,1.8,0.5,2.9,0.5
		c0.7,0,1.2-0.1,1.7-0.2c0.5-0.1,0.9-0.2,1.2-0.4c0.3-0.1,0.6-0.3,0.8-0.4c0.2-0.2,0.4-0.3,0.6-0.4v-6.8h-5.3v-5.7h12.8V98.6z"/>
	<path class="st3" d="M308.3,102.8h-7.5V65.5h7.5V102.8z"/>
	<path class="st3" d="M339.9,90.4c-0.2,4.3-1.4,7.5-3.6,9.7c-2.2,2.2-5.3,3.3-9.3,3.3c-2.1,0-3.9-0.3-5.5-1c-1.6-0.7-3-1.7-4.1-3
		c-1.1-1.3-2-3-2.5-5c-0.6-2-0.9-4.3-0.9-6.9V81c0-2.6,0.3-4.9,0.9-6.9c0.6-2,1.5-3.7,2.6-5c1.1-1.3,2.5-2.4,4.1-3.1
		c1.6-0.7,3.4-1,5.5-1c4.1,0,7.1,1.1,9.3,3.4c2.1,2.3,3.3,5.5,3.6,9.8h-7.6c0-1.3-0.1-2.4-0.3-3.3c-0.2-0.9-0.5-1.6-0.9-2.1
		c-0.4-0.5-0.9-0.9-1.6-1.1c-0.7-0.2-1.5-0.3-2.4-0.3c-1,0-1.9,0.2-2.6,0.5c-0.7,0.3-1.3,0.9-1.7,1.7c-0.4,0.8-0.8,1.8-1,3
		c-0.2,1.2-0.3,2.8-0.3,4.5v6.4c0,1.7,0.1,3.2,0.3,4.5c0.2,1.2,0.5,2.2,0.9,3c0.4,0.8,1,1.3,1.7,1.7c0.7,0.4,1.6,0.5,2.7,0.5
		c0.9,0,1.7-0.1,2.4-0.3c0.7-0.2,1.2-0.5,1.6-1c0.4-0.5,0.8-1.2,1-2c0.2-0.9,0.4-2,0.4-3.3H339.9z"/>
	<path class="st3" d="M362.3,95.2H352l-2,7.6h-8l11.6-37.3h6.9l11.7,37.3h-8L362.3,95.2z M353.7,88.9h7l-3.5-13.3L353.7,88.9z"/>
	<path class="st3" d="M383.3,96.5h13.2v6.2h-20.7V65.5h7.5V96.5z"/>
	<path class="st3" d="M139.5,143.4v-34.6h9.8c2.3,0,4.4,0.4,6.2,1.1c1.9,0.8,3.5,1.8,4.8,3.3c1.3,1.4,2.4,3.1,3.1,5.1
		c0.7,2,1.1,4.3,1.1,6.8v2c0,2.5-0.4,4.8-1.1,6.8c-0.7,2-1.8,3.7-3.1,5.1c-1.4,1.4-3,2.5-4.9,3.2c-1.9,0.8-4.1,1.1-6.5,1.1H139.5z
		 M144,112.6v27.1h4.8c1.8,0,3.5-0.3,4.8-0.9c1.4-0.6,2.6-1.4,3.5-2.5c0.9-1.1,1.6-2.4,2.1-3.9c0.5-1.5,0.7-3.3,0.7-5.2v-2.1
		c0-2-0.2-3.7-0.7-5.3c-0.5-1.5-1.2-2.9-2.1-3.9c-0.9-1.1-2-1.9-3.4-2.4c-1.3-0.6-2.9-0.8-4.6-0.8H144z"/>
	<path class="st3" d="M176.8,143.4h-4.6v-34.6h4.6V143.4z"/>
	<path class="st3" d="M198.1,137.4l9.9-28.5h5l-12.8,34.6h-4l-12.8-34.6h5L198.1,137.4z"/>
	<path class="st3" d="M239.1,127.4h-15v12.3h17.4v3.7h-22v-34.6h21.7v3.8h-17.2v11.1h15V127.4z"/>
	<path class="st3" d="M260.9,129.4h-8.1v14h-4.6v-34.6h11.5c3.9,0,6.9,0.9,9,2.7c2.1,1.8,3.1,4.4,3.1,7.7c0,2.2-0.6,4-1.7,5.6
		c-1.2,1.6-2.8,2.8-4.9,3.6l8.1,14.7v0.3h-4.9L260.9,129.4z M252.8,125.7h7c1.2,0,2.3-0.2,3.2-0.5c0.9-0.3,1.7-0.8,2.3-1.4
		c0.6-0.6,1.1-1.3,1.4-2c0.3-0.8,0.5-1.6,0.5-2.5c0-1-0.1-1.9-0.4-2.7c-0.3-0.8-0.7-1.5-1.4-2.1c-0.6-0.6-1.4-1-2.4-1.4
		c-1-0.3-2.1-0.5-3.4-0.5h-6.9V125.7z"/>
	<path class="st3" d="M297.7,134.7c0-0.8-0.1-1.5-0.4-2.1c-0.2-0.6-0.7-1.2-1.3-1.7c-0.6-0.5-1.5-1-2.5-1.4c-1.1-0.5-2.4-0.9-4-1.4
		c-1.7-0.5-3.3-1-4.6-1.7c-1.4-0.6-2.6-1.3-3.5-2.2c-1-0.8-1.7-1.7-2.2-2.8c-0.5-1-0.8-2.2-0.8-3.6c0-1.3,0.3-2.6,0.8-3.7
		c0.6-1.1,1.4-2.1,2.4-3c1-0.8,2.3-1.5,3.7-2c1.4-0.5,3-0.7,4.8-0.7c1.9,0,3.7,0.3,5.2,0.9s2.8,1.4,3.8,2.3c1,1,1.8,2.1,2.4,3.4
		c0.5,1.3,0.8,2.6,0.8,3.9h-4.6c0-1-0.2-1.9-0.5-2.7c-0.3-0.8-0.8-1.5-1.4-2.1c-0.6-0.6-1.4-1.1-2.4-1.4c-1-0.3-2.1-0.5-3.4-0.5
		c-1.2,0-2.3,0.1-3.2,0.4c-0.9,0.3-1.6,0.7-2.2,1.2c-0.6,0.5-1,1.1-1.3,1.8c-0.3,0.7-0.4,1.4-0.4,2.2c0,0.7,0.2,1.4,0.5,2
		c0.3,0.6,0.8,1.2,1.4,1.7c0.6,0.5,1.5,1,2.5,1.4c1,0.4,2.2,0.8,3.7,1.2c2,0.6,3.7,1.2,5.1,1.8c1.4,0.7,2.6,1.4,3.5,2.3
		c0.9,0.9,1.6,1.8,2.1,2.9c0.5,1.1,0.7,2.3,0.7,3.6c0,1.4-0.3,2.7-0.9,3.8c-0.6,1.1-1.4,2.1-2.4,2.9c-1.1,0.8-2.3,1.4-3.8,1.9
		c-1.5,0.4-3.1,0.7-5,0.7c-1.1,0-2.1-0.1-3.2-0.3c-1.1-0.2-2.1-0.5-3.1-0.9c-1-0.4-1.9-0.9-2.7-1.5c-0.8-0.6-1.6-1.3-2.2-2
		c-0.6-0.8-1.1-1.6-1.4-2.6c-0.3-1-0.5-2-0.5-3.2h4.6c0,1.2,0.2,2.2,0.7,3.1c0.5,0.8,1.1,1.5,1.9,2.1c0.8,0.6,1.7,1,2.7,1.2
		c1,0.3,2.1,0.4,3.2,0.4c2.4,0,4.3-0.5,5.5-1.5C297,137.7,297.7,136.4,297.7,134.7z"/>
	<path class="st3" d="M314,143.4h-4.6v-34.6h4.6V143.4z"/>
	<path class="st3" d="M346.6,112.6h-11.1v30.8h-4.5v-30.8h-11.1v-3.8h26.8V112.6z"/>
	<path class="st3" d="M363.7,126.2l9-17.4h5.2L366,130.5v12.9h-4.6v-12.9l-11.9-21.7h5.2L363.7,126.2z"/>
</g>
</svg>
